<?xml version="1.0" encoding="UTF-8" standalone="no"?>
<!DOCTYPE svg PUBLIC "-//W3C//DTD SVG 1.1//EN"
 "http://www.w3.org/Graphics/SVG/1.1/DTD/svg11.dtd">
<!-- Generated by graphviz version 2.46.1 (20210213.1702)
 -->
<!-- Title: dependencies Pages: 1 -->
<svg width="634pt" height="276pt"
 viewBox="0.00 0.00 634.00 276.00" xmlns="http://www.w3.org/2000/svg" xmlns:xlink="http://www.w3.org/1999/xlink">
<g id="graph0" class="graph" transform="scale(1 1) rotate(0) translate(4 272)">
<title>dependencies</title>
<polygon fill="white" stroke="transparent" points="-4,4 -4,-272 630,-272 630,4 -4,4"/>
<text text-anchor="start" x="292.01" y="-42.4" font-family="sans-serif" font-weight="bold" font-size="14.00">Legend</text>
<polygon fill="#ffffb3" stroke="transparent" points="79,-10 79,-30 99,-30 99,-10 79,-10"/>
<text text-anchor="start" x="102.63" y="-15.4" font-family="sans-serif" font-size="14.00"> &#160;Declarations</text>
<polygon fill="#8dd3c7" stroke="transparent" points="192,-10 192,-30 212,-30 212,-10 192,-10"/>
<text text-anchor="start" x="215.73" y="-15.4" font-family="sans-serif" font-size="14.00"> &#160;Module</text>
<polygon fill="#80b1d3" stroke="transparent" points="278,-10 278,-30 298,-30 298,-10 278,-10"/>
<text text-anchor="start" x="301.78" y="-15.4" font-family="sans-serif" font-size="14.00"> &#160;Bootstrap</text>
<polygon fill="#fdb462" stroke="transparent" points="375,-10 375,-30 395,-30 395,-10 375,-10"/>
<text text-anchor="start" x="398.67" y="-15.4" font-family="sans-serif" font-size="14.00"> &#160;Providers</text>
<polygon fill="#fb8072" stroke="transparent" points="471,-10 471,-30 491,-30 491,-10 471,-10"/>
<text text-anchor="start" x="494.73" y="-15.4" font-family="sans-serif" font-size="14.00"> &#160;Exports</text>
<g id="clust1" class="cluster">
<title>cluster_AppModule</title>
<polygon fill="none" stroke="black" stroke-dasharray="1,5" points="8,-70 8,-260 320,-260 320,-70 8,-70"/>
</g>
<g id="clust3" class="cluster">
<title>cluster_AppModule_imports</title>
<polygon fill="none" stroke="black" points="16,-78 16,-195 312,-195 312,-78 16,-78"/>
</g>
<g id="clust13" class="cluster">
<title>cluster_DbModule</title>
<polygon fill="none" stroke="black" stroke-dasharray="1,5" points="328,-135 328,-203 618,-203 618,-135 328,-135"/>
</g>
<g id="clust16" class="cluster">
<title>cluster_DbModule_exports</title>
<polygon fill="none" stroke="black" points="494,-143 494,-195 610,-195 610,-143 494,-143"/>
</g>
<g id="clust18" class="cluster">
<title>cluster_DbModule_providers</title>
<polygon fill="none" stroke="black" points="336,-143 336,-195 486,-195 486,-143 336,-143"/>
</g>
<!-- AuthModule -->
<g id="node1" class="node">
<title>AuthModule</title>
<polygon fill="#8dd3c7" stroke="black" points="209.55,-122 206.55,-126 185.55,-126 182.55,-122 122.45,-122 122.45,-86 209.55,-86 209.55,-122"/>
<text text-anchor="middle" x="166" y="-99.8" font-family="Times,serif" font-size="14.00">AuthModule</text>
</g>
<!-- AppModule -->
<g id="node6" class="node">
<title>AppModule</title>
<polygon fill="#8dd3c7" stroke="black" points="292.66,-252 289.66,-256 268.66,-256 265.66,-252 209.34,-252 209.34,-216 292.66,-216 292.66,-252"/>
<text text-anchor="middle" x="251" y="-229.8" font-family="Times,serif" font-size="14.00">AppModule</text>
</g>
<!-- AuthModule&#45;&gt;AppModule -->
<g id="edge1" class="edge">
<title>AuthModule&#45;&gt;AppModule</title>
<path fill="none" stroke="black" d="M136.78,-122.03C136.78,-156.42 136.78,-228 136.78,-228 136.78,-228 199.12,-228 199.12,-228"/>
<polygon fill="black" stroke="black" points="199.12,-231.5 209.12,-228 199.12,-224.5 199.12,-231.5"/>
</g>
<!-- DbModule -->
<g id="node2" class="node">
<title>DbModule</title>
<polygon fill="#8dd3c7" stroke="black" points="304.16,-122 301.16,-126 280.16,-126 277.16,-122 227.84,-122 227.84,-86 304.16,-86 304.16,-122"/>
<text text-anchor="middle" x="266" y="-99.8" font-family="Times,serif" font-size="14.00">DbModule</text>
</g>
<!-- ProductModule -->
<g id="node4" class="node">
<title>ProductModule</title>
<polygon fill="#8dd3c7" stroke="black" points="127.6,-187 124.6,-191 103.6,-191 100.6,-187 24.4,-187 24.4,-151 127.6,-151 127.6,-187"/>
<text text-anchor="middle" x="76" y="-164.8" font-family="Times,serif" font-size="14.00">ProductModule</text>
</g>
<!-- DbModule&#45;&gt;ProductModule -->
<g id="edge8" class="edge">
<title>DbModule&#45;&gt;ProductModule</title>
<path fill="none" stroke="black" d="M262.41,-122.11C262.41,-131.9 262.41,-142 262.41,-142 262.41,-142 113.25,-142 113.25,-142 113.25,-142 113.25,-142.88 113.25,-142.88"/>
<polygon fill="black" stroke="black" points="109.75,-140.84 113.25,-150.84 116.75,-140.84 109.75,-140.84"/>
</g>
<!-- UserModule -->
<g id="node5" class="node">
<title>UserModule</title>
<polygon fill="#8dd3c7" stroke="black" points="231.98,-187 228.98,-191 207.98,-191 204.98,-187 146.02,-187 146.02,-151 231.98,-151 231.98,-187"/>
<text text-anchor="middle" x="189" y="-164.8" font-family="Times,serif" font-size="14.00">UserModule</text>
</g>
<!-- DbModule&#45;&gt;UserModule -->
<g id="edge9" class="edge">
<title>DbModule&#45;&gt;UserModule</title>
<path fill="none" stroke="black" d="M227.84,-104C222.46,-104 218.72,-104 218.72,-104 218.72,-104 218.72,-140.89 218.72,-140.89"/>
<polygon fill="black" stroke="black" points="215.22,-140.89 218.72,-150.89 222.22,-140.89 215.22,-140.89"/>
</g>
<!-- DbModule&#45;&gt;AppModule -->
<g id="edge2" class="edge">
<title>DbModule&#45;&gt;AppModule</title>
<path fill="none" stroke="black" d="M277.62,-122.08C277.62,-122.08 277.62,-205.66 277.62,-205.66"/>
<polygon fill="black" stroke="black" points="274.12,-205.66 277.62,-215.66 281.12,-205.66 274.12,-205.66"/>
</g>
<!-- PrismaService  -->
<g id="node7" class="node">
<title>PrismaService </title>
<polygon fill="#fb8072" stroke="black" points="602.36,-187 501.64,-187 501.64,-151 602.36,-151 602.36,-187"/>
<text text-anchor="middle" x="552" y="-164.8" font-family="Times,serif" font-size="14.00">PrismaService </text>
</g>
<!-- DbModule&#45;&gt;PrismaService  -->
<g id="edge6" class="edge">
<title>DbModule&#45;&gt;PrismaService </title>
<path fill="none" stroke="black" stroke-dasharray="5,2" d="M304.27,-104C382.21,-104 552,-104 552,-104 552,-104 552,-140.89 552,-140.89"/>
<polygon fill="black" stroke="black" points="548.5,-140.89 552,-150.89 555.5,-140.89 548.5,-140.89"/>
</g>
<!-- GqlModule -->
<g id="node3" class="node">
<title>GqlModule</title>
<polygon fill="#8dd3c7" stroke="black" points="104.05,-122 101.05,-126 80.05,-126 77.05,-122 23.95,-122 23.95,-86 104.05,-86 104.05,-122"/>
<text text-anchor="middle" x="64" y="-99.8" font-family="Times,serif" font-size="14.00">GqlModule</text>
</g>
<!-- GqlModule&#45;&gt;AppModule -->
<g id="edge3" class="edge">
<title>GqlModule&#45;&gt;AppModule</title>
<path fill="none" stroke="black" d="M64.36,-122.21C64.36,-127.55 64.36,-132 64.36,-132 64.36,-132 247.2,-132 247.2,-132 247.2,-132 247.2,-205.76 247.2,-205.76"/>
<polygon fill="black" stroke="black" points="243.7,-205.76 247.2,-215.76 250.7,-205.76 243.7,-205.76"/>
</g>
<!-- ProductModule&#45;&gt;AppModule -->
<g id="edge4" class="edge">
<title>ProductModule&#45;&gt;AppModule</title>
<path fill="none" stroke="black" d="M76,-187.28C76,-208.32 76,-240 76,-240 76,-240 199.08,-240 199.08,-240"/>
<polygon fill="black" stroke="black" points="199.08,-243.5 209.08,-240 199.08,-236.5 199.08,-243.5"/>
</g>
<!-- UserModule&#45;&gt;AppModule -->
<g id="edge5" class="edge">
<title>UserModule&#45;&gt;AppModule</title>
<path fill="none" stroke="black" d="M220.58,-187.11C220.58,-187.11 220.58,-205.99 220.58,-205.99"/>
<polygon fill="black" stroke="black" points="217.08,-205.99 220.58,-215.99 224.08,-205.99 217.08,-205.99"/>
</g>
<!-- PrismaService -->
<g id="node8" class="node">
<title>PrismaService</title>
<ellipse fill="#fdb462" stroke="black" cx="411" cy="-169" rx="66.63" ry="18"/>
<text text-anchor="middle" x="411" y="-164.8" font-family="Times,serif" font-size="14.00">PrismaService</text>
</g>
<!-- PrismaService&#45;&gt;DbModule -->
<g id="edge7" class="edge">
<title>PrismaService&#45;&gt;DbModule</title>
<path fill="none" stroke="black" d="M343.98,-169C319.9,-169 298.58,-169 298.58,-169 298.58,-169 298.58,-132.11 298.58,-132.11"/>
<polygon fill="black" stroke="black" points="302.08,-132.11 298.58,-122.11 295.08,-132.11 302.08,-132.11"/>
</g>
</g>
</svg>
